# xmcd CD database file
#
# Track frame offsets:
#	150
#	13518
#	35852
#	55586
#	69830
#	88291
#	109257
#	126598
#	146924
#	177036
#	198920
#	223059
#
# Disc length: 3189 seconds
#
# Revision: 0
# Processed by: cddbd v1.5.1PL0 Copyright (c) Steve Scherf et al.
# Submitted via: cdripper 1.0.7
#
DISCID=b40c730c
DTITLE=Blue Celestial Turks - Night Of The Blue Flamingos
DYEAR=1995
DGENRE=Blues
TTITLE0=Night Of The Blue Flamingo (Flamingo Strut)
TTITLE1=Introspect
TTITLE2=Cassio Peia
TTITLE3=Zephyr Riding (Live From Luckenbach @ 1992)
TTITLE4=His Way
TTITLE5=White Horse Run
TTITLE6=1 De Noviembre (Live From Lucknbach @ 1993)
TTITLE7=La Espanola
TTITLE8=Tunis
TTITLE9=Hey Dag
TTITLE10=Eclipse Of The Blue Moon
TTITLE11=Amigo Blues
EXTD=YEAR: 1995
EXTT0=
EXTT1=
EXTT2=
EXTT3=
EXTT4=
EXTT5=
EXTT6=
EXTT7=
EXTT8=
EXTT9=
EXTT10=
EXTT11=
PLAYORDER=
